<?xml version="1.0" standalone="no"?>
<!DOCTYPE svg PUBLIC "-//W3C//DTD SVG 20010904//EN"
 "http://www.w3.org/TR/2001/REC-SVG-20010904/DTD/svg10.dtd">
<svg version="1.0" xmlns="http://www.w3.org/2000/svg"
 width="1413.000000pt" height="1413.000000pt" viewBox="0 0 1413.000000 1413.000000"
 preserveAspectRatio="xMidYMid meet">
<metadata>
Created by potrace 1.11, written by Peter Selinger 2001-2013
</metadata>
<g transform="translate(0.000000,1413.000000) scale(0.100000,-0.100000)"
fill="#000000" stroke="none">
<path d="M895 12569 c-88 -12 -213 -79 -283 -150 -214 -216 -264 -565 -121
-839 52 -101 162 -210 263 -259 38 -18 256 -98 484 -177 l415 -144 568 -290
c312 -159 572 -291 577 -292 5 -2 29 26 53 62 31 46 64 78 112 111 131 88 213
100 487 70 825 -88 1756 -120 2929 -101 370 7 682 15 693 19 13 4 -87 46 -329
135 -1341 497 -2823 1005 -4404 1512 -649 207 -708 224 -793 224 -48 0 -98 12
-225 55 -211 70 -294 83 -426 64z"/>
<path d="M11160 8864 c-247 -33 -861 -78 -1295 -94 -154 -6 -660 -14 -1125
-17 -851 -6 -1483 3 -2329 32 -228 8 -416 13 -418 11 -8 -8 837 -387 1212
-543 1069 -446 2116 -781 2984 -956 l115 -23 -280 -118 c-358 -151 -1490 -622
-2154 -896 -283 -117 -546 -228 -585 -246 l-70 -33 210 7 c379 12 3776 7 4225
-6 l415 -12 159 107 c372 253 693 492 999 748 252 210 350 306 381 375 93 204
67 429 -71 623 -19 27 -43 79 -55 115 -48 159 -152 298 -277 372 -120 70 -137
73 -511 79 l-335 6 -210 98 c-378 177 -854 387 -872 386 -10 -1 -61 -7 -113
-15z"/>
<path d="M3685 4348 c-564 -288 -1406 -783 -1995 -1173 -590 -390 -671 -464
-748 -677 -23 -65 -26 -87 -26 -203 0 -116 3 -139 28 -210 56 -164 183 -319
315 -389 106 -55 170 -70 301 -70 146 0 194 16 480 159 992 497 2110 936 4195
1650 1034 354 2320 813 2395 856 8 5 -267 9 -620 9 -656 0 -985 6 -2265 40
-1062 28 -1591 40 -1810 39 l-190 0 -60 -31z"/>
</g>
</svg>
